<svg width="31" height="25" viewBox="0 0 31 25" fill="none" xmlns="http://www.w3.org/2000/svg">
<path d="M15.5001 0.833252H5.29175C2.87091 0.833252 0.916748 2.78742 0.916748 5.20825V16.8749C0.916748 19.2958 2.87091 21.2499 5.29175 21.2499L3.83342 22.7083V24.1666H5.29175L8.20842 21.2062L11.1251 21.2499V13.9583H3.83342V3.72075L16.9584 3.74992V6.66658H19.8751V5.20825C19.8751 2.78742 17.9209 0.833252 15.5001 0.833252ZM5.29175 15.4166C6.09383 15.4166 6.75008 16.0728 6.75008 16.8749C6.75008 17.677 6.09383 18.3333 5.29175 18.3333C4.48967 18.3333 3.83342 17.677 3.83342 16.8749C3.83342 16.0728 4.48967 15.4166 5.29175 15.4166ZM27.998 9.08742C27.7938 8.50408 27.2397 8.12492 26.5834 8.12492H16.098C15.4272 8.12492 14.8876 8.50408 14.6688 9.08742L12.5834 15.0812L12.598 23.1166C12.598 23.6708 13.0501 24.1666 13.6042 24.1666H14.5084C15.0626 24.1666 15.5001 23.6124 15.5001 23.0583V21.2499H27.1668V23.0583C27.1668 23.6124 27.6188 24.1666 28.173 24.1666H29.0626C29.6168 24.1666 30.0688 23.6708 30.0688 23.1166L30.0834 21.1187V15.0812L27.998 9.08742ZM16.098 9.58325H26.5834L28.0855 13.9583H14.5959L16.098 9.58325ZM15.5001 18.3333C14.698 18.3333 14.0417 17.677 14.0417 16.8749C14.0417 16.0728 14.698 15.4166 15.5001 15.4166C16.3022 15.4166 16.9584 16.0728 16.9584 16.8749C16.9584 17.677 16.3022 18.3333 15.5001 18.3333ZM27.1668 18.3333C26.3647 18.3333 25.7084 17.677 25.7084 16.8749C25.7084 16.0728 26.3647 15.4166 27.1668 15.4166C27.9688 15.4166 28.6251 16.0728 28.6251 16.8749C28.6251 17.677 27.9688 18.3333 27.1668 18.3333Z" fill="white"/>
</svg>
