<svg width="60" height="54" viewBox="0 0 60 54" fill="none" xmlns="http://www.w3.org/2000/svg">
<path d="M29.9999 12.4167V0.75H0.833252V53.25H59.1666V12.4167H29.9999ZM12.4999 47.4167H6.66659V41.5833H12.4999V47.4167ZM12.4999 35.75H6.66659V29.9167H12.4999V35.75ZM12.4999 24.0833H6.66659V18.25H12.4999V24.0833ZM12.4999 12.4167H6.66659V6.58333H12.4999V12.4167ZM24.1666 47.4167H18.3333V41.5833H24.1666V47.4167ZM24.1666 35.75H18.3333V29.9167H24.1666V35.75ZM24.1666 24.0833H18.3333V18.25H24.1666V24.0833ZM24.1666 12.4167H18.3333V6.58333H24.1666V12.4167ZM53.3333 47.4167H29.9999V41.5833H35.8333V35.75H29.9999V29.9167H35.8333V24.0833H29.9999V18.25H53.3333V47.4167ZM47.4999 24.0833H41.6666V29.9167H47.4999V24.0833ZM47.4999 35.75H41.6666V41.5833H47.4999V35.75Z" fill="white"/>
</svg>
