<svg width="21" height="31" viewBox="0 0 21 31" fill="none" xmlns="http://www.w3.org/2000/svg">
<path d="M19.2501 9.66675C19.2501 4.83967 15.3272 0.916748 10.5001 0.916748C5.673 0.916748 1.75008 4.83967 1.75008 9.66675C1.75008 16.2292 10.5001 25.7084 10.5001 25.7084C10.5001 25.7084 19.2501 16.2292 19.2501 9.66675ZM7.58342 9.66675C7.58342 8.06258 8.89592 6.75008 10.5001 6.75008C12.1042 6.75008 13.4167 8.06258 13.4167 9.66675C13.4167 11.2709 12.1188 12.5834 10.5001 12.5834C8.89592 12.5834 7.58342 11.2709 7.58342 9.66675ZM0.291748 27.1668V30.0834H20.7084V27.1668H0.291748Z" fill="white"/>
</svg>
