<svg width="48" height="57" viewBox="0 0 48 57" fill="none" xmlns="http://www.w3.org/2000/svg">
<path d="M24.0001 0.833252C11.1084 0.833252 0.666748 2.29159 0.666748 12.4999V40.2083C0.666748 45.8374 5.24591 50.4166 10.8751 50.4166L6.50008 54.7916V56.2499H41.5001V54.7916L37.1251 50.4166C42.7542 50.4166 47.3334 45.8374 47.3334 40.2083V12.4999C47.3334 2.29159 36.8917 0.833252 24.0001 0.833252ZM10.8751 44.5833C8.45425 44.5833 6.50008 42.6291 6.50008 40.2083C6.50008 37.7874 8.45425 35.8333 10.8751 35.8333C13.2959 35.8333 15.2501 37.7874 15.2501 40.2083C15.2501 42.6291 13.2959 44.5833 10.8751 44.5833ZM21.0834 27.0833H6.50008V12.4999H21.0834V27.0833ZM37.1251 44.5833C34.7042 44.5833 32.7501 42.6291 32.7501 40.2083C32.7501 37.7874 34.7042 35.8333 37.1251 35.8333C39.5459 35.8333 41.5001 37.7874 41.5001 40.2083C41.5001 42.6291 39.5459 44.5833 37.1251 44.5833ZM41.5001 27.0833H26.9167V12.4999H41.5001V27.0833Z" fill="white"/>
</svg>
