<svg width="51" height="60" viewBox="0 0 51 60" fill="none" xmlns="http://www.w3.org/2000/svg">
<path d="M25.5417 0.833252C11.8625 0.833252 0.75 11.9458 0.75 25.6249C0.75 39.3041 11.8625 50.4166 25.5417 50.4166H27V59.1666C41.175 52.3416 50.3333 38.7499 50.3333 25.6249C50.3333 11.9458 39.2208 0.833252 25.5417 0.833252ZM28.4583 43.1249H22.625V37.2916H28.4583V43.1249ZM28.4583 32.9166H22.625C22.625 23.4374 31.375 24.1666 31.375 18.3333C31.375 15.1249 28.75 12.4999 25.5417 12.4999C22.3333 12.4999 19.7083 15.1249 19.7083 18.3333H13.875C13.875 11.8874 19.0958 6.66659 25.5417 6.66659C31.9875 6.66659 37.2083 11.8874 37.2083 18.3333C37.2083 25.6249 28.4583 26.3541 28.4583 32.9166Z" fill="white"/>
</svg>
